# Aspose.3D Wavefront OBJ Exporter
# Copyright 2004-2022 Aspose Pty Ltd.
# File created: 07/09/2022 06:55:54

mtllib material.lib

#
# object Circle
#

v 0 0 0
v 1 0 0
v 0.95105654001235968 0.30901700258255004 0
v 0.80901700258255008 0.58778524398803712 0
v 0.58778524398803712 0.80901700258255008 0
v 0.30901700258255004 0.95105654001235968 0
v 6.123234262925839E-17 1 0
v -0.30901700258255004 0.95105654001235968 0
v -0.58778524398803712 0.80901700258255008 0
v -0.80901700258255008 0.58778524398803712 0
v -0.95105654001235968 0.30901700258255004 0
v -1 1.2246468525851679E-16 0
v -0.95105654001235968 -0.30901700258255004 0
v -0.80901700258255008 -0.58778524398803712 0
v -0.58778524398803712 -0.80901700258255008 0
v -0.30901700258255004 -0.95105654001235968 0
v -1.8369701465288538E-16 -1 0
v 0.30901700258255004 -0.95105654001235968 0
v 0.58778524398803712 -0.80901700258255008 0
v 0.80901700258255008 -0.58778524398803712 0
v 0.95105654001235968 -0.30901700258255004 0
v 1 -2.4492937051703357E-16 0
# 22 vertices

vn 0 0 1
vn 0 0 1
vn 0 0 1
vn 0 0 1
vn 0 0 1
vn 0 0 1
vn 0 0 1
vn 0 0 1
vn 0 0 1
vn 0 0 1
vn 0 0 1
vn 0 0 1
vn 0 0 1
vn 0 0 1
vn 0 0 1
vn 0 0 1
vn 0 0 1
vn 0 0 1
vn 0 0 1
vn 0 0 1
vn 0 0 1
vn 0 0 1
# 22 vertex normals

vt 0.5 -0.5 0
vt 1 -0.5 0
vt 0.97552824020385744 -0.65450847148895264 0
vt 0.90450847148895264 -0.79389262199401856 0
vt 0.79389262199401856 -0.90450847148895264 0
vt 0.65450847148895264 -0.97552824020385744 0
vt 0.5 -1 0
vt 0.34549149870872496 -0.97552824020385744 0
vt 0.20610737800598144 -0.90450847148895264 0
vt 0.09549150615930558 -0.79389262199401856 0
vt 0.02447174116969108 -0.65450847148895264 0
vt 0 -0.5 0
vt 0.02447174116969108 -0.34549149870872496 0
vt 0.09549150615930558 -0.20610737800598144 0
vt 0.20610737800598144 -0.09549150615930558 0
vt 0.34549149870872496 -0.02447174116969108 0
vt 0.5 -0 0
vt 0.65450847148895264 -0.02447174116969108 0
vt 0.79389262199401856 -0.09549150615930558 0
vt 0.90450847148895264 -0.20610737800598144 0
vt 0.97552824020385744 -0.34549149870872496 0
vt 1 -0.5 0
# 22 texture coords

g Circle
usemtl mat_35931259
s 1
f 2/2/2 3/3/3 1/1/1
f 3/3/3 4/4/4 1/1/1
f 4/4/4 5/5/5 1/1/1
f 5/5/5 6/6/6 1/1/1
f 6/6/6 7/7/7 1/1/1
f 7/7/7 8/8/8 1/1/1
f 8/8/8 9/9/9 1/1/1
f 9/9/9 10/10/10 1/1/1
f 10/10/10 11/11/11 1/1/1
f 11/11/11 12/12/12 1/1/1
f 12/12/12 13/13/13 1/1/1
f 13/13/13 14/14/14 1/1/1
f 14/14/14 15/15/15 1/1/1
f 15/15/15 16/16/16 1/1/1
f 16/16/16 17/17/17 1/1/1
f 17/17/17 18/18/18 1/1/1
f 18/18/18 19/19/19 1/1/1
f 19/19/19 20/20/20 1/1/1
f 20/20/20 21/21/21 1/1/1
f 21/21/21 22/22/22 1/1/1
#20 polygons

