# Aspose.3D Wavefront OBJ Exporter
# Copyright 2004-2022 Aspose Pty Ltd.
# File created: 07/09/2022 06:46:05

mtllib material.lib

#
# object Octahedron
#

v 0 1 0
v 0 0 1
v 1 0 0
v 0 0 1
v 0 -1 0
v 1 0 0
v 0 -1 0
v 0 0 -1
v 1 0 0
v 0 0 -1
v 0 1 0
v 1 0 0
v 0 1 0
v 0 0 -1
v -1 0 0
v 0 0 -1
v 0 -1 0
v -1 0 0
v 0 -1 0
v 0 0 1
v -1 0 0
v 0 0 1
v 0 1 0
v -1 0 0
# 24 vertices

vn 0.57735025882720944 0.57735025882720944 0.57735025882720944
vn 0.57735025882720944 0.57735025882720944 0.57735025882720944
vn 0.57735025882720944 0.57735025882720944 0.57735025882720944
vn 0.57735025882720944 -0.57735025882720944 0.57735025882720944
vn 0.57735025882720944 -0.57735025882720944 0.57735025882720944
vn 0.57735025882720944 -0.57735025882720944 0.57735025882720944
vn 0.57735025882720944 -0.57735025882720944 -0.57735025882720944
vn 0.57735025882720944 -0.57735025882720944 -0.57735025882720944
vn 0.57735025882720944 -0.57735025882720944 -0.57735025882720944
vn 0.57735025882720944 0.57735025882720944 -0.57735025882720944
vn 0.57735025882720944 0.57735025882720944 -0.57735025882720944
vn 0.57735025882720944 0.57735025882720944 -0.57735025882720944
vn -0.57735025882720944 0.57735025882720944 -0.57735025882720944
vn -0.57735025882720944 0.57735025882720944 -0.57735025882720944
vn -0.57735025882720944 0.57735025882720944 -0.57735025882720944
vn -0.57735025882720944 -0.57735025882720944 -0.57735025882720944
vn -0.57735025882720944 -0.57735025882720944 -0.57735025882720944
vn -0.57735025882720944 -0.57735025882720944 -0.57735025882720944
vn -0.57735025882720944 -0.57735025882720944 0.57735025882720944
vn -0.57735025882720944 -0.57735025882720944 0.57735025882720944
vn -0.57735025882720944 -0.57735025882720944 0.57735025882720944
vn -0.57735025882720944 0.57735025882720944 0.57735025882720944
vn -0.57735025882720944 0.57735025882720944 0.57735025882720944
vn -0.57735025882720944 0.57735025882720944 0.57735025882720944
# 24 vertex normals

vt 0.875 -1 0
vt 0.75 -0.5 0
vt 1 -0.5 0
vt 0.75 -0.5 0
vt 0.875 -0 0
vt 1 -0.5 0
vt 0.125 -0 0
vt 0.25 -0.5 0
vt 0 -0.5 0
vt 0.25 -0.5 0
vt 0.125 -1 0
vt 0 -0.5 0
vt 0.375 -1 0
vt 0.25 -0.5 0
vt 0.5 -0.5 0
vt 0.25 -0.5 0
vt 0.375 -0 0
vt 0.5 -0.5 0
vt 0.625 -0 0
vt 0.75 -0.5 0
vt 0.5 -0.5 0
vt 0.75 -0.5 0
vt 0.625 -1 0
vt 0.5 -0.5 0
# 24 texture coords

g Octahedron
usemtl mat_35814335
s 1
f 1/1/1 2/2/2 3/3/3
f 4/4/4 5/5/5 6/6/6
f 7/7/7 8/8/8 9/9/9
f 10/10/10 11/11/11 12/12/12
f 13/13/13 14/14/14 15/15/15
f 16/16/16 17/17/17 18/18/18
f 19/19/19 20/20/20 21/21/21
f 22/22/22 23/23/23 24/24/24
#8 polygons

