# Aspose.3D Wavefront OBJ Exporter
# Copyright 2004-2022 Aspose Pty Ltd.
# File created: 07/09/2022 06:56:03

mtllib material.lib

#
# object Ring
#

v 0.5 0 0
v 0.47552827000617984 0.15450850129127502 0
v 0.40450850129127504 0.29389262199401856 0
v 0.29389262199401856 0.40450850129127504 0
v 0.15450850129127502 0.47552827000617984 0
v 3.0616171314629196E-17 0.5 0
v -0.15450850129127502 0.47552827000617984 0
v -0.29389262199401856 0.40450850129127504 0
v -0.40450850129127504 0.29389262199401856 0
v -0.47552827000617984 0.15450850129127502 0
v -0.5 6.123234262925839E-17 0
v -0.47552827000617984 -0.15450850129127502 0
v -0.40450850129127504 -0.29389262199401856 0
v -0.29389262199401856 -0.40450850129127504 0
v -0.15450850129127502 -0.47552827000617984 0
v -9.184850732644269E-17 -0.5 0
v 0.15450850129127502 -0.47552827000617984 0
v 0.29389262199401856 -0.40450850129127504 0
v 0.40450850129127504 -0.29389262199401856 0
v 0.47552827000617984 -0.15450850129127502 0
v 0.5 -1.2246468525851679E-16 0
v 1 0 0
v 0.95105654001235968 0.30901700258255004 0
v 0.80901700258255008 0.58778524398803712 0
v 0.58778524398803712 0.80901700258255008 0
v 0.30901700258255004 0.95105654001235968 0
v 6.123234262925839E-17 1 0
v -0.30901700258255004 0.95105654001235968 0
v -0.58778524398803712 0.80901700258255008 0
v -0.80901700258255008 0.58778524398803712 0
v -0.95105654001235968 0.30901700258255004 0
v -1 1.2246468525851679E-16 0
v -0.95105654001235968 -0.30901700258255004 0
v -0.80901700258255008 -0.58778524398803712 0
v -0.58778524398803712 -0.80901700258255008 0
v -0.30901700258255004 -0.95105654001235968 0
v -1.8369701465288538E-16 -1 0
v 0.30901700258255004 -0.95105654001235968 0
v 0.58778524398803712 -0.80901700258255008 0
v 0.80901700258255008 -0.58778524398803712 0
v 0.95105654001235968 -0.30901700258255004 0
v 1 -2.4492937051703357E-16 0
# 42 vertices

vn 0 0 1
vn 0 0 1
vn 0 0 1
vn 0 0 1
vn 0 0 1
vn 0 0 1
vn 0 0 1
vn 0 0 1
vn 0 0 1
vn 0 0 1
vn 0 0 1
vn 0 0 1
vn 0 0 1
vn 0 0 1
vn 0 0 1
vn 0 0 1
vn 0 0 1
vn 0 0 1
vn 0 0 1
vn 0 0 1
vn 0 0 1
vn 0 0 1
vn 0 0 1
vn 0 0 1
vn 0 0 1
vn 0 0 1
vn 0 0 1
vn 0 0 1
vn 0 0 1
vn 0 0 1
vn 0 0 1
vn 0 0 1
vn 0 0 1
vn 0 0 1
vn 0 0 1
vn 0 0 1
vn 0 0 1
vn 0 0 1
vn 0 0 1
vn 0 0 1
vn 0 0 1
vn 0 0 1
# 42 vertex normals

vt 0.75 -0.5 0
vt 0.73776412010192864 -0.57725423574447632 0
vt 0.70225423574447632 -0.64694631099700928 0
vt 0.64694631099700928 -0.70225423574447632 0
vt 0.57725423574447632 -0.73776412010192864 0
vt 0.5 -0.75 0
vt 0.42274576425552368 -0.73776412010192864 0
vt 0.35305368900299072 -0.70225423574447632 0
vt 0.29774576425552368 -0.64694631099700928 0
vt 0.26223587989807128 -0.57725423574447632 0
vt 0.25 -0.5 0
vt 0.26223587989807128 -0.42274576425552368 0
vt 0.29774576425552368 -0.35305368900299072 0
vt 0.35305368900299072 -0.29774576425552368 0
vt 0.42274576425552368 -0.26223587989807128 0
vt 0.5 -0.25 0
vt 0.57725423574447632 -0.26223587989807128 0
vt 0.64694631099700928 -0.29774576425552368 0
vt 0.70225423574447632 -0.35305368900299072 0
vt 0.73776412010192864 -0.42274576425552368 0
vt 0.75 -0.5 0
vt 1 -0.5 0
vt 0.97552824020385744 -0.65450847148895264 0
vt 0.90450847148895264 -0.79389262199401856 0
vt 0.79389262199401856 -0.90450847148895264 0
vt 0.65450847148895264 -0.97552824020385744 0
vt 0.5 -1 0
vt 0.34549149870872496 -0.97552824020385744 0
vt 0.20610737800598144 -0.90450847148895264 0
vt 0.09549150615930558 -0.79389262199401856 0
vt 0.02447174116969108 -0.65450847148895264 0
vt 0 -0.5 0
vt 0.02447174116969108 -0.34549149870872496 0
vt 0.09549150615930558 -0.20610737800598144 0
vt 0.20610737800598144 -0.09549150615930558 0
vt 0.34549149870872496 -0.02447174116969108 0
vt 0.5 -0 0
vt 0.65450847148895264 -0.02447174116969108 0
vt 0.79389262199401856 -0.09549150615930558 0
vt 0.90450847148895264 -0.20610737800598144 0
vt 0.97552824020385744 -0.34549149870872496 0
vt 1 -0.5 0
# 42 texture coords

g Ring
usemtl mat_33245524
s 1
f 1/1/1 22/22/22 2/2/2
f 22/22/22 23/23/23 2/2/2
f 2/2/2 23/23/23 3/3/3
f 23/23/23 24/24/24 3/3/3
f 3/3/3 24/24/24 4/4/4
f 24/24/24 25/25/25 4/4/4
f 4/4/4 25/25/25 5/5/5
f 25/25/25 26/26/26 5/5/5
f 5/5/5 26/26/26 6/6/6
f 26/26/26 27/27/27 6/6/6
f 6/6/6 27/27/27 7/7/7
f 27/27/27 28/28/28 7/7/7
f 7/7/7 28/28/28 8/8/8
f 28/28/28 29/29/29 8/8/8
f 8/8/8 29/29/29 9/9/9
f 29/29/29 30/30/30 9/9/9
f 9/9/9 30/30/30 10/10/10
f 30/30/30 31/31/31 10/10/10
f 10/10/10 31/31/31 11/11/11
f 31/31/31 32/32/32 11/11/11
f 11/11/11 32/32/32 12/12/12
f 32/32/32 33/33/33 12/12/12
f 12/12/12 33/33/33 13/13/13
f 33/33/33 34/34/34 13/13/13
f 13/13/13 34/34/34 14/14/14
f 34/34/34 35/35/35 14/14/14
f 14/14/14 35/35/35 15/15/15
f 35/35/35 36/36/36 15/15/15
f 15/15/15 36/36/36 16/16/16
f 36/36/36 37/37/37 16/16/16
f 16/16/16 37/37/37 17/17/17
f 37/37/37 38/38/38 17/17/17
f 17/17/17 38/38/38 18/18/18
f 38/38/38 39/39/39 18/18/18
f 18/18/18 39/39/39 19/19/19
f 39/39/39 40/40/40 19/19/19
f 19/19/19 40/40/40 20/20/20
f 40/40/40 41/41/41 20/20/20
f 20/20/20 41/41/41 21/21/21
f 41/41/41 42/42/42 21/21/21
#40 polygons

