# Aspose.3D Wavefront OBJ Exporter
# Copyright 2004-2022 Aspose Pty Ltd.
# File created: 07/09/2022 06:45:07

mtllib material.lib

#
# object Tetrahedron
#

v -0.57735025882720944 -0.57735025882720944 0.57735025882720944
v 0.57735025882720944 0.57735025882720944 0.57735025882720944
v -0.57735025882720944 0.57735025882720944 -0.57735025882720944
v 0.57735025882720944 -0.57735025882720944 -0.57735025882720944
v -0.57735025882720944 0.57735025882720944 -0.57735025882720944
v 0.57735025882720944 0.57735025882720944 0.57735025882720944
v 0.57735025882720944 -0.57735025882720944 -0.57735025882720944
v 0.57735025882720944 0.57735025882720944 0.57735025882720944
v -0.57735025882720944 -0.57735025882720944 0.57735025882720944
v 0.57735025882720944 -0.57735025882720944 -0.57735025882720944
v -0.57735025882720944 -0.57735025882720944 0.57735025882720944
v -0.57735025882720944 0.57735025882720944 -0.57735025882720944
# 12 vertices

vn -0.57735025882720944 0.57735025882720944 0.57735025882720944
vn -0.57735025882720944 0.57735025882720944 0.57735025882720944
vn -0.57735025882720944 0.57735025882720944 0.57735025882720944
vn 0.57735025882720944 0.57735025882720944 -0.57735025882720944
vn 0.57735025882720944 0.57735025882720944 -0.57735025882720944
vn 0.57735025882720944 0.57735025882720944 -0.57735025882720944
vn 0.57735025882720944 -0.57735025882720944 0.57735025882720944
vn 0.57735025882720944 -0.57735025882720944 0.57735025882720944
vn 0.57735025882720944 -0.57735025882720944 0.57735025882720944
vn -0.57735025882720944 -0.57735025882720944 -0.57735025882720944
vn -0.57735025882720944 -0.57735025882720944 -0.57735025882720944
vn -0.57735025882720944 -0.57735025882720944 -0.57735025882720944
# 12 vertex normals

vt 0.625 -0.30408671498298644 0
vt 0.875 -0.6959132552146912 0
vt 0.375 -0.6959132552146912 0
vt 0.125 -0.30408671498298644 0
vt 0.375 -0.6959132552146912 0
vt 0.875 -0.6959132552146912 0
vt 0.125 -0.30408671498298644 0
vt 0.875 -0.6959132552146912 0
vt 0.625 -0.30408671498298644 0
vt 0.125 -0.30408671498298644 0
vt 0.625 -0.30408671498298644 0
vt 0.375 -0.6959132552146912 0
# 12 texture coords

g Tetrahedron
usemtl mat_44194459
s 1
f 1/1/1 2/2/2 3/3/3
f 4/4/4 5/5/5 6/6/6
f 7/7/7 8/8/8 9/9/9
f 10/10/10 11/11/11 12/12/12
#4 polygons

